<svg id="레이어_1" data-name="레이어 1" xmlns="http://www.w3.org/2000/svg" viewBox="0 0 559.7 92.47"><defs><style>.cls-1{fill:#2e3192;}</style></defs><path class="cls-1" d="M117.14,88.93a5.89,5.89,0,0,1-2.38-.48,6.27,6.27,0,0,1-1.89-1.31,6,6,0,0,1-1.25-1.93,6.07,6.07,0,0,1-.45-2.32v0a6.1,6.1,0,0,1,.45-2.34,6.16,6.16,0,0,1,1.25-1.94,6.3,6.3,0,0,1,1.89-1.32,5.89,5.89,0,0,1,2.38-.48,6.36,6.36,0,0,1,1.51.16,5.84,5.84,0,0,1,1.24.43,6.08,6.08,0,0,1,1,.67,8.53,8.53,0,0,1,.88.81l-1.15,1.22a7.79,7.79,0,0,0-1.52-1.24,3.64,3.64,0,0,0-2-.52,4,4,0,0,0-3,1.31,4.25,4.25,0,0,0-.88,1.43A4.83,4.83,0,0,0,113,82.8v0a4.7,4.7,0,0,0,1.23,3.21,4.23,4.23,0,0,0,1.35,1,4.17,4.17,0,0,0,1.7.35,3.92,3.92,0,0,0,2-.5,6.66,6.66,0,0,0,1.57-1.24l1.1,1a7.7,7.7,0,0,1-2,1.62A5.52,5.52,0,0,1,117.14,88.93Z"/><path class="cls-1" d="M124.75,72.22h1.74V79A5.57,5.57,0,0,1,128,77.43a4.2,4.2,0,0,1,2.45-.66,4.81,4.81,0,0,1,1.88.34,3.82,3.82,0,0,1,1.4,1,4.48,4.48,0,0,1,.88,1.48,5.68,5.68,0,0,1,.3,1.89v7.23H133.2V81.87a3.71,3.71,0,0,0-.84-2.56,3,3,0,0,0-2.38-.94,3.55,3.55,0,0,0-1.39.26,3.14,3.14,0,0,0-1.11.74,3.23,3.23,0,0,0-.73,1.16,3.9,3.9,0,0,0-.26,1.48v6.65h-1.74Z"/><path class="cls-1" d="M142.9,88.91a5,5,0,0,1-1.88-.34,3.89,3.89,0,0,1-1.39-1,4,4,0,0,1-.88-1.47,5.69,5.69,0,0,1-.3-1.9V77h1.73V83.8a3.74,3.74,0,0,0,.83,2.56,3,3,0,0,0,2.39,1,3.68,3.68,0,0,0,1.38-.26,3.14,3.14,0,0,0,1.11-.74,3.52,3.52,0,0,0,.73-1.16,3.94,3.94,0,0,0,.27-1.48V77h1.71V88.66h-1.71v-2a5.45,5.45,0,0,1-1.53,1.61A4.14,4.14,0,0,1,142.9,88.91Z"/><path class="cls-1" d="M152.5,77h1.73v2a5.57,5.57,0,0,1,1.53-1.61,4.21,4.21,0,0,1,2.46-.66,4.85,4.85,0,0,1,1.88.34,3.78,3.78,0,0,1,1.39,1,4.16,4.16,0,0,1,.88,1.48,5.43,5.43,0,0,1,.31,1.89v7.23h-1.74V81.87a3.75,3.75,0,0,0-.83-2.56,3,3,0,0,0-2.39-.94,3.5,3.5,0,0,0-1.38.26,3.27,3.27,0,0,0-1.12.74,3.37,3.37,0,0,0-.73,1.16,4.1,4.1,0,0,0-.26,1.48v6.65H152.5Z"/><path class="cls-1" d="M171.53,92.31a9.58,9.58,0,0,1-2.8-.41,9,9,0,0,1-2.5-1.21l.79-1.36a8.28,8.28,0,0,0,2.12,1.11,7.3,7.3,0,0,0,2.36.38,4.42,4.42,0,0,0,3.09-1,4,4,0,0,0,1.15-3.09V85.3A7.4,7.4,0,0,1,173.87,87a4.86,4.86,0,0,1-2.7.72,5.64,5.64,0,0,1-2-.38,5.4,5.4,0,0,1-1.75-1.1,5.18,5.18,0,0,1-1.22-1.71,5.31,5.31,0,0,1-.47-2.26v0a5.42,5.42,0,0,1,.47-2.29,5.26,5.26,0,0,1,1.22-1.73,5.6,5.6,0,0,1,1.76-1.09,5.71,5.71,0,0,1,2-.38,5.38,5.38,0,0,1,1.49.19,5.55,5.55,0,0,1,1.24.51,4.89,4.89,0,0,1,1,.74,7.57,7.57,0,0,1,.81.9V77h1.74v9.61a7,7,0,0,1-.38,2.38A4.9,4.9,0,0,1,176,90.75a4.73,4.73,0,0,1-1.91,1.17A7.66,7.66,0,0,1,171.53,92.31Zm0-6.08a4.76,4.76,0,0,0,1.6-.28,4.09,4.09,0,0,0,1.36-.82,3.94,3.94,0,0,0,1-1.25,3.51,3.51,0,0,0,.36-1.59v-.05a3.57,3.57,0,0,0-.36-1.62,4,4,0,0,0-1-1.24,4.4,4.4,0,0,0-1.36-.8,4.53,4.53,0,0,0-1.6-.28,4.27,4.27,0,0,0-1.56.28,3.89,3.89,0,0,0-1.28.79,3.62,3.62,0,0,0-.87,1.23,4,4,0,0,0-.32,1.62v0a3.83,3.83,0,0,0,.33,1.61A3.9,3.9,0,0,0,170,85.93,4,4,0,0,0,171.5,86.23Z"/><path class="cls-1" d="M187.51,88.91A5,5,0,0,1,186,88.7a4.66,4.66,0,0,1-1.22-.54,4.94,4.94,0,0,1-1-.78,7.45,7.45,0,0,1-.77-.95v2.23h-1.74V72.22h1.74v7.14a8.36,8.36,0,0,1,.79-1,5.08,5.08,0,0,1,1-.82A5.38,5.38,0,0,1,186,77a4.83,4.83,0,0,1,1.47-.21,5.41,5.41,0,0,1,3.83,1.59,5.5,5.5,0,0,1,1.26,1.89,6.37,6.37,0,0,1,.48,2.55v0a6.43,6.43,0,0,1-.48,2.54,5.81,5.81,0,0,1-1.25,1.91,5.57,5.57,0,0,1-1.77,1.19A5.32,5.32,0,0,1,187.51,88.91Zm-.31-1.56a4.32,4.32,0,0,0,1.59-.3,3.74,3.74,0,0,0,1.3-.88,4.17,4.17,0,0,0,.88-1.41,5.06,5.06,0,0,0,.33-1.89v0A5,5,0,0,0,191,81a4.18,4.18,0,0,0-.89-1.42,3.89,3.89,0,0,0-1.3-.9,4.06,4.06,0,0,0-1.58-.32,3.92,3.92,0,0,0-1.57.33A4.33,4.33,0,0,0,183.34,81,4.46,4.46,0,0,0,183,82.8v0a4.66,4.66,0,0,0,.35,1.85,4.2,4.2,0,0,0,.94,1.41,4.56,4.56,0,0,0,1.35.92A4.08,4.08,0,0,0,187.2,87.35Z"/><path class="cls-1" d="M200.55,88.91a5,5,0,0,1-1.88-.34,3.81,3.81,0,0,1-1.39-1,4,4,0,0,1-.88-1.47,5.69,5.69,0,0,1-.31-1.9V77h1.74V83.8a3.74,3.74,0,0,0,.83,2.56,3,3,0,0,0,2.39,1,3.68,3.68,0,0,0,1.38-.26,3.14,3.14,0,0,0,1.11-.74,3.7,3.7,0,0,0,.73-1.16,3.94,3.94,0,0,0,.27-1.48V77h1.71V88.66h-1.71v-2A5.45,5.45,0,0,1,203,88.24,4.14,4.14,0,0,1,200.55,88.91Z"/><path class="cls-1" d="M210.15,72.22h1.73V83.57L218.16,77h2.17l-4.89,5,5,6.64h-2.07l-4.16-5.43-2.37,2.39v3h-1.73Z"/><path class="cls-1" d="M228.57,77h1.91l3.92,9.66L238.34,77h1.87l-5.07,11.73h-1.53Z"/><path class="cls-1" d="M244,83.55a4.67,4.67,0,0,0,.45,1.64,4,4,0,0,0,.92,1.22,4,4,0,0,0,1.27.75,4.19,4.19,0,0,0,1.46.26,4.47,4.47,0,0,0,2.08-.45,6.24,6.24,0,0,0,1.59-1.19l1.08,1a6.76,6.76,0,0,1-2,1.59,6.42,6.42,0,0,1-5,.16,5.53,5.53,0,0,1-1.84-1.24,5.65,5.65,0,0,1-1.25-1.92,6.44,6.44,0,0,1-.47-2.48,6.74,6.74,0,0,1,.42-2.38,5.85,5.85,0,0,1,1.16-1.93,5.56,5.56,0,0,1,1.77-1.3,5.24,5.24,0,0,1,6.25,1.33,5.88,5.88,0,0,1,1.06,2,7.85,7.85,0,0,1,.36,2.41v.26a2.47,2.47,0,0,1,0,.35Zm7.5-1.42a5.67,5.67,0,0,0-.34-1.49,4,4,0,0,0-.73-1.24,3.18,3.18,0,0,0-1.13-.85,3.5,3.5,0,0,0-1.52-.32,3.43,3.43,0,0,0-1.39.29,3.61,3.61,0,0,0-1.15.82,4.46,4.46,0,0,0-.82,1.24,5,5,0,0,0-.42,1.55Z"/><path class="cls-1" d="M260.16,88.86a4.54,4.54,0,0,1-1.3-.18,2.67,2.67,0,0,1-1.05-.57,2.83,2.83,0,0,1-.69-1,4.23,4.23,0,0,1-.24-1.51v-7h-1.63V77h1.63V73.5h1.73V77h3.69v1.53h-3.69v6.78a1.83,1.83,0,0,0,.54,1.51,2.24,2.24,0,0,0,1.42.42,3.74,3.74,0,0,0,.84-.08,4.36,4.36,0,0,0,.85-.3v1.49a4,4,0,0,1-1,.37A5,5,0,0,1,260.16,88.86Z"/><path class="cls-1" d="M266.4,83.55a4.67,4.67,0,0,0,.45,1.64,4,4,0,0,0,.92,1.22,4,4,0,0,0,1.27.75,4.19,4.19,0,0,0,1.46.26,4.47,4.47,0,0,0,2.08-.45,6.24,6.24,0,0,0,1.59-1.19l1.08,1a6.76,6.76,0,0,1-2,1.59,6.42,6.42,0,0,1-5.05.16,5.53,5.53,0,0,1-1.84-1.24,5.65,5.65,0,0,1-1.25-1.92,6.44,6.44,0,0,1-.47-2.48,6.74,6.74,0,0,1,.42-2.38,5.85,5.85,0,0,1,1.16-1.93,5.45,5.45,0,0,1,1.77-1.3,5.24,5.24,0,0,1,6.25,1.33,5.88,5.88,0,0,1,1.06,2,7.85,7.85,0,0,1,.36,2.41v.26a2.47,2.47,0,0,1,0,.35Zm7.5-1.42a5.67,5.67,0,0,0-.34-1.49,4,4,0,0,0-.73-1.24,3.18,3.18,0,0,0-1.13-.85,3.5,3.5,0,0,0-1.52-.32,3.43,3.43,0,0,0-1.39.29,3.61,3.61,0,0,0-1.15.82,4.46,4.46,0,0,0-.82,1.24,5,5,0,0,0-.42,1.55Z"/><path class="cls-1" d="M278.7,77h1.73v3a5.92,5.92,0,0,1,.79-1.33,4.88,4.88,0,0,1,1.08-1,4.72,4.72,0,0,1,1.33-.66,4.88,4.88,0,0,1,1.55-.21v1.87h-.13a4.87,4.87,0,0,0-1.79.34,4.07,4.07,0,0,0-1.48,1,4.79,4.79,0,0,0-1,1.68,6.83,6.83,0,0,0-.36,2.31v4.64H278.7Z"/><path class="cls-1" d="M287.82,77h1.73v2a5.57,5.57,0,0,1,1.53-1.61,4.21,4.21,0,0,1,2.46-.66,4.85,4.85,0,0,1,1.88.34,3.87,3.87,0,0,1,1.39,1,4.16,4.16,0,0,1,.88,1.48,5.67,5.67,0,0,1,.31,1.89v7.23h-1.74V81.87a3.75,3.75,0,0,0-.83-2.56,3,3,0,0,0-2.39-.94,3.5,3.5,0,0,0-1.38.26,3.27,3.27,0,0,0-1.12.74,3.37,3.37,0,0,0-.73,1.16,4.1,4.1,0,0,0-.26,1.48v6.65h-1.73Z"/><path class="cls-1" d="M305.16,88.91a5.78,5.78,0,0,1-1.6-.23,4.17,4.17,0,0,1-1.4-.69,3.56,3.56,0,0,1-1-1.13,3.21,3.21,0,0,1-.37-1.58v0a3.63,3.63,0,0,1,.36-1.66,3.15,3.15,0,0,1,1-1.18,4.63,4.63,0,0,1,1.57-.72,7.5,7.5,0,0,1,2-.25,12.19,12.19,0,0,1,1.95.14,12.88,12.88,0,0,1,1.61.36v-.36a3,3,0,0,0-.91-2.34,3.7,3.7,0,0,0-2.54-.79,7.29,7.29,0,0,0-1.88.22,9.49,9.49,0,0,0-1.66.61l-.51-1.43a11.89,11.89,0,0,1,2-.73,8.62,8.62,0,0,1,2.27-.27,5.07,5.07,0,0,1,3.76,1.28,4.63,4.63,0,0,1,1.22,3.42v7.12h-1.71V86.93a5.67,5.67,0,0,1-1.64,1.38A5,5,0,0,1,305.16,88.91Zm.35-1.42a4.81,4.81,0,0,0,1.5-.23,4,4,0,0,0,1.22-.63,3.17,3.17,0,0,0,.84-1,2.67,2.67,0,0,0,.3-1.27V83.3c-.44-.12-.93-.23-1.48-.34A10.82,10.82,0,0,0,306,82.8a4.25,4.25,0,0,0-2.5.64,2,2,0,0,0-.89,1.69v.05a2,2,0,0,0,.24,1,2,2,0,0,0,.63.73,2.83,2.83,0,0,0,.94.45A3.68,3.68,0,0,0,305.51,87.49Z"/><path class="cls-1" d="M314.73,77h1.73v3a5.92,5.92,0,0,1,.79-1.33,5.36,5.36,0,0,1,1.08-1,4.72,4.72,0,0,1,1.33-.66,4.88,4.88,0,0,1,1.55-.21v1.87h-.13a4.87,4.87,0,0,0-1.79.34,4.07,4.07,0,0,0-1.48,1,4.79,4.79,0,0,0-1,1.68,6.83,6.83,0,0,0-.36,2.31v4.64h-1.73Z"/><path class="cls-1" d="M325.65,92.33a5.3,5.3,0,0,1-1.31-.15,5.08,5.08,0,0,1-1.17-.44l.59-1.37a3.66,3.66,0,0,0,.84.33,4.69,4.69,0,0,0,1,.1,2,2,0,0,0,1.33-.47A4.86,4.86,0,0,0,328,88.61L322.68,77h1.91l4.24,9.7,3.73-9.7h1.85l-4.89,12a6.38,6.38,0,0,1-1.65,2.55A3.44,3.44,0,0,1,325.65,92.33Z"/><path class="cls-1" d="M343.91,77h1.74v2a8.47,8.47,0,0,1,.64-.84,4.19,4.19,0,0,1,.8-.71,4.09,4.09,0,0,1,1-.48,4.32,4.32,0,0,1,1.31-.18,3.94,3.94,0,0,1,2.34.66,4.47,4.47,0,0,1,1.4,1.66,6.78,6.78,0,0,1,.7-.9,4.54,4.54,0,0,1,.89-.75,4.37,4.37,0,0,1,1.12-.49,4.91,4.91,0,0,1,1.38-.18A4.11,4.11,0,0,1,360.42,78a4.9,4.9,0,0,1,1.15,3.43v7.21h-1.74V81.87a3.75,3.75,0,0,0-.8-2.59,2.77,2.77,0,0,0-2.21-.91,3.41,3.41,0,0,0-1.24.23,3,3,0,0,0-1,.7,3.6,3.6,0,0,0-.7,1.14A4.21,4.21,0,0,0,353.6,82v6.7h-1.72V81.83a3.7,3.7,0,0,0-.8-2.55,2.75,2.75,0,0,0-2.19-.91,3,3,0,0,0-2.31,1,3.84,3.84,0,0,0-.69,1.16,4.28,4.28,0,0,0-.24,1.47v6.63h-1.74Z"/><path class="cls-1" d="M366.37,83.55a4.47,4.47,0,0,0,.45,1.64,3.89,3.89,0,0,0,.92,1.22,3.83,3.83,0,0,0,1.26.75,4.19,4.19,0,0,0,1.46.26,4.51,4.51,0,0,0,2.09-.45,6.37,6.37,0,0,0,1.58-1.19l1.09,1a6.92,6.92,0,0,1-2,1.59,6.4,6.4,0,0,1-5,.16,5.57,5.57,0,0,1-1.85-1.24,5.8,5.8,0,0,1-1.25-1.92,6.44,6.44,0,0,1-.46-2.48,6.74,6.74,0,0,1,.42-2.38,5.83,5.83,0,0,1,1.15-1.93,5.56,5.56,0,0,1,1.77-1.3,5.38,5.38,0,0,1,2.24-.47,5.29,5.29,0,0,1,2.3.48,5.1,5.1,0,0,1,1.71,1.32,5.71,5.71,0,0,1,1.06,2,7.85,7.85,0,0,1,.36,2.41v.26c0,.1,0,.21,0,.35Zm7.49-1.42a5.29,5.29,0,0,0-.33-1.49,4,4,0,0,0-.74-1.24,3.15,3.15,0,0,0-1.12-.85,3.65,3.65,0,0,0-2.92,0,3.72,3.72,0,0,0-1.15.82,4.76,4.76,0,0,0-1.23,2.79Z"/><path class="cls-1" d="M383.55,88.91a5.48,5.48,0,0,1-3.83-1.59,5.69,5.69,0,0,1-1.26-1.89,6.46,6.46,0,0,1-.48-2.56v0a6.44,6.44,0,0,1,.48-2.55,5.64,5.64,0,0,1,1.26-1.9,5.4,5.4,0,0,1,1.78-1.19,5.19,5.19,0,0,1,2.05-.42A5.3,5.3,0,0,1,385,77a5,5,0,0,1,2.2,1.33,7.71,7.71,0,0,1,.78,1v-7h1.73V88.66H388V86.32a10.5,10.5,0,0,1-.8,1,6,6,0,0,1-1,.83,4.47,4.47,0,0,1-1.21.56A4.83,4.83,0,0,1,383.55,88.91Zm.31-1.56a4.08,4.08,0,0,0,1.57-.32,4.41,4.41,0,0,0,1.35-.93,4.24,4.24,0,0,0,.94-1.42,4.49,4.49,0,0,0,.35-1.83v0a4.52,4.52,0,0,0-.35-1.83,4.2,4.2,0,0,0-.94-1.41,4.52,4.52,0,0,0-1.35-.91,3.92,3.92,0,0,0-1.57-.33,4.07,4.07,0,0,0-1.6.31,3.77,3.77,0,0,0-1.29.87,4.38,4.38,0,0,0-.88,1.41,5.13,5.13,0,0,0-.33,1.89v0a5.06,5.06,0,0,0,.33,1.87,4.28,4.28,0,0,0,.89,1.42,3.95,3.95,0,0,0,2.88,1.21Z"/><path class="cls-1" d="M393.66,72.56h2v1.91h-2Zm.11,4.46h1.73V88.66h-1.73Z"/><path class="cls-1" d="M404.78,88.93a5.8,5.8,0,0,1-2.37-.48,5.91,5.91,0,0,1-3.15-3.24,6.07,6.07,0,0,1-.45-2.32v0a6.1,6.1,0,0,1,.45-2.34,6.34,6.34,0,0,1,1.25-1.94,6.23,6.23,0,0,1,1.9-1.32,5.8,5.8,0,0,1,2.37-.48,6.36,6.36,0,0,1,1.51.16,5.84,5.84,0,0,1,1.24.43,6.17,6.17,0,0,1,1,.67,9.58,9.58,0,0,1,.87.81l-1.14,1.22a8.43,8.43,0,0,0-1.52-1.24,3.68,3.68,0,0,0-2-.52,3.92,3.92,0,0,0-1.64.35,4,4,0,0,0-1.33,1,4.25,4.25,0,0,0-.88,1.43,4.83,4.83,0,0,0-.32,1.76v0a4.7,4.7,0,0,0,1.23,3.21,4.23,4.23,0,0,0,1.35,1,4.17,4.17,0,0,0,1.7.35,4,4,0,0,0,2-.5,6.81,6.81,0,0,0,1.56-1.24l1.1,1a7.7,7.7,0,0,1-2,1.62A5.52,5.52,0,0,1,404.78,88.93Z"/><path class="cls-1" d="M415.86,88.91a5.84,5.84,0,0,1-1.6-.23,4.12,4.12,0,0,1-1.39-.69,3.44,3.44,0,0,1-1-1.13,3.21,3.21,0,0,1-.37-1.58v0a3.63,3.63,0,0,1,.36-1.66,3.22,3.22,0,0,1,1-1.18,4.68,4.68,0,0,1,1.58-.72,7.48,7.48,0,0,1,2-.25,12.16,12.16,0,0,1,3.56.5v-.36a3,3,0,0,0-.9-2.34,3.72,3.72,0,0,0-2.54-.79,7.29,7.29,0,0,0-1.88.22,9.2,9.2,0,0,0-1.66.61l-.52-1.43a12.6,12.6,0,0,1,2-.73,8.7,8.7,0,0,1,2.28-.27,5.09,5.09,0,0,1,3.76,1.28,4.62,4.62,0,0,1,1.21,3.42v7.12h-1.71V86.93a5.62,5.62,0,0,1-1.63,1.38A5,5,0,0,1,415.86,88.91Zm.35-1.42a4.92,4.92,0,0,0,1.51-.23,4,4,0,0,0,1.22-.63,3.14,3.14,0,0,0,.83-1,2.67,2.67,0,0,0,.3-1.27V83.3c-.43-.12-.92-.23-1.48-.34a10.74,10.74,0,0,0-1.91-.16,4.28,4.28,0,0,0-2.5.64,2,2,0,0,0-.88,1.69v.05a2,2,0,0,0,.23,1,2.05,2.05,0,0,0,.64.73,2.87,2.87,0,0,0,.93.45A3.68,3.68,0,0,0,416.21,87.49Z"/><path class="cls-1" d="M425.59,72.22h1.74V88.66h-1.74Z"/><path class="cls-1" d="M441.58,88.91a5.84,5.84,0,0,1-1.6-.23,4.26,4.26,0,0,1-1.4-.69,3.56,3.56,0,0,1-1-1.13,3.32,3.32,0,0,1-.37-1.58v0a3.63,3.63,0,0,1,.36-1.66,3.15,3.15,0,0,1,1-1.18,4.72,4.72,0,0,1,1.57-.72,7.5,7.5,0,0,1,2-.25,12.19,12.19,0,0,1,2,.14,12.5,12.5,0,0,1,1.61.36v-.36a3,3,0,0,0-.9-2.34,3.73,3.73,0,0,0-2.55-.79,7.29,7.29,0,0,0-1.88.22,9.39,9.39,0,0,0-1.65.61l-.52-1.43a12.23,12.23,0,0,1,2-.73,8.67,8.67,0,0,1,2.27-.27,5.07,5.07,0,0,1,3.76,1.28,4.63,4.63,0,0,1,1.22,3.42v7.12h-1.71V86.93a5.75,5.75,0,0,1-1.63,1.38A5,5,0,0,1,441.58,88.91Zm.35-1.42a4.81,4.81,0,0,0,1.5-.23,4,4,0,0,0,1.23-.63,3.14,3.14,0,0,0,.83-1,2.67,2.67,0,0,0,.3-1.27V83.3c-.43-.12-.93-.23-1.48-.34a10.74,10.74,0,0,0-1.91-.16,4.25,4.25,0,0,0-2.5.64,2,2,0,0,0-.89,1.69v.05a2,2,0,0,0,.24,1,2.05,2.05,0,0,0,.64.73,2.87,2.87,0,0,0,.93.45A3.68,3.68,0,0,0,441.93,87.49Z"/><path class="cls-1" d="M455,88.88a7.38,7.38,0,0,1-2.54-.46,7.85,7.85,0,0,1-2.28-1.25l.88-1.24A7.92,7.92,0,0,0,453,87a6,6,0,0,0,2.06.38,2.87,2.87,0,0,0,1.74-.49,1.6,1.6,0,0,0,.67-1.36v0a1.17,1.17,0,0,0-.24-.74,2.08,2.08,0,0,0-.64-.56,5.77,5.77,0,0,0-.93-.41c-.36-.12-.72-.24-1.09-.34s-.91-.28-1.37-.44a5.62,5.62,0,0,1-1.23-.6,3.12,3.12,0,0,1-.91-.9,2.46,2.46,0,0,1-.34-1.35v0a3.12,3.12,0,0,1,.29-1.37,3,3,0,0,1,.82-1,3.63,3.63,0,0,1,1.26-.68,5.09,5.09,0,0,1,1.59-.24,7.25,7.25,0,0,1,2.18.35,8.44,8.44,0,0,1,2,.94l-.79,1.3a8.06,8.06,0,0,0-1.7-.82,5.46,5.46,0,0,0-1.75-.3,2.56,2.56,0,0,0-1.64.48,1.48,1.48,0,0,0-.61,1.21v0a1.06,1.06,0,0,0,.25.71,2.23,2.23,0,0,0,.66.53,5.33,5.33,0,0,0,1,.4c.36.13.74.25,1.13.37s.89.28,1.34.45a4.89,4.89,0,0,1,1.2.63,3,3,0,0,1,.87.92,2.5,2.5,0,0,1,.33,1.33v0a3.19,3.19,0,0,1-.33,1.48,3.33,3.33,0,0,1-.88,1.09,3.9,3.9,0,0,1-1.31.69A5.31,5.31,0,0,1,455,88.88Z"/><path class="cls-1" d="M466.22,88.88a7.43,7.43,0,0,1-2.55-.46,7.79,7.79,0,0,1-2.27-1.25l.87-1.24a8,8,0,0,0,2,1.11,5.91,5.91,0,0,0,2.06.38,2.86,2.86,0,0,0,1.73-.49,1.6,1.6,0,0,0,.67-1.36v0a1.17,1.17,0,0,0-.23-.74,2.21,2.21,0,0,0-.64-.56,5.89,5.89,0,0,0-.94-.41c-.35-.12-.71-.24-1.09-.34s-.9-.28-1.36-.44a5.7,5.7,0,0,1-1.24-.6,3,3,0,0,1-.9-.9,2.46,2.46,0,0,1-.35-1.35v0a3.27,3.27,0,0,1,.29-1.37,3.12,3.12,0,0,1,.82-1,3.82,3.82,0,0,1,1.26-.68,5.09,5.09,0,0,1,1.59-.24,7.36,7.36,0,0,1,2.19.35,8.55,8.55,0,0,1,2,.94l-.79,1.3a7.83,7.83,0,0,0-1.7-.82,5.4,5.4,0,0,0-1.74-.3,2.61,2.61,0,0,0-1.65.48,1.5,1.5,0,0,0-.6,1.21v0a1.11,1.11,0,0,0,.24.71,2.28,2.28,0,0,0,.67.53,5,5,0,0,0,1,.4c.36.13.73.25,1.12.37s.9.28,1.34.45a5.15,5.15,0,0,1,1.21.63A3,3,0,0,1,470,84a2.5,2.5,0,0,1,.33,1.33v0a3.19,3.19,0,0,1-.33,1.48,3.33,3.33,0,0,1-.88,1.09,3.85,3.85,0,0,1-1.3.69A5.4,5.4,0,0,1,466.22,88.88Z"/><path class="cls-1" d="M478.89,88.93a6,6,0,0,1-2.41-.48,6.24,6.24,0,0,1-1.91-1.31,6,6,0,0,1-1.26-1.91,6.1,6.1,0,0,1-.45-2.34v0a6.1,6.1,0,0,1,.45-2.34,6,6,0,0,1,1.26-1.94,6,6,0,0,1,4.37-1.8,6,6,0,0,1,2.42.48,6.22,6.22,0,0,1,1.93,1.31,5.88,5.88,0,0,1,1.26,1.91A6.08,6.08,0,0,1,485,82.8v0a6.14,6.14,0,0,1-.46,2.34,6.24,6.24,0,0,1-1.28,1.94,6,6,0,0,1-4.37,1.8Zm.05-1.55a4.09,4.09,0,0,0,1.73-.36,4.17,4.17,0,0,0,1.35-1,4.41,4.41,0,0,0,.88-1.42,4.76,4.76,0,0,0,.32-1.74v0a4.72,4.72,0,0,0-.33-1.77,4.41,4.41,0,0,0-2.28-2.42,4.31,4.31,0,0,0-3.45,0,4,4,0,0,0-1.34,1,4.39,4.39,0,0,0-.87,1.43,4.83,4.83,0,0,0-.31,1.74v0a4.92,4.92,0,0,0,.32,1.77,4.53,4.53,0,0,0,.91,1.43,4.32,4.32,0,0,0,1.36,1A4,4,0,0,0,478.94,87.38Z"/><path class="cls-1" d="M493.37,88.93a5.84,5.84,0,0,1-2.37-.48,6,6,0,0,1-1.89-1.31,5.84,5.84,0,0,1-1.25-1.93,6.07,6.07,0,0,1-.45-2.32v0a6.1,6.1,0,0,1,.45-2.34,6,6,0,0,1,1.25-1.94A6.06,6.06,0,0,1,491,77.25a5.84,5.84,0,0,1,2.37-.48,6.36,6.36,0,0,1,1.51.16,5.66,5.66,0,0,1,1.24.43,6.17,6.17,0,0,1,1,.67,9.71,9.71,0,0,1,.88.81l-1.15,1.22a8.09,8.09,0,0,0-1.52-1.24,3.68,3.68,0,0,0-2-.52,4,4,0,0,0-3,1.31A4.25,4.25,0,0,0,489.5,81a4.83,4.83,0,0,0-.31,1.76v0a4.63,4.63,0,0,0,1.22,3.21,4.47,4.47,0,0,0,1.35,1,4.17,4.17,0,0,0,1.7.35,4,4,0,0,0,2-.5A6.41,6.41,0,0,0,497,85.64l1.11,1a7.74,7.74,0,0,1-2,1.62A5.52,5.52,0,0,1,493.37,88.93Z"/><path class="cls-1" d="M501,72.56h2v1.91h-2Zm.11,4.46h1.74V88.66h-1.74Z"/><path class="cls-1" d="M510.38,88.91a5.78,5.78,0,0,1-1.6-.23,4.17,4.17,0,0,1-1.4-.69,3.56,3.56,0,0,1-1-1.13,3.21,3.21,0,0,1-.37-1.58v0a3.63,3.63,0,0,1,.36-1.66,3.15,3.15,0,0,1,1-1.18,4.63,4.63,0,0,1,1.57-.72,7.5,7.5,0,0,1,2-.25,12.19,12.19,0,0,1,2,.14,12.88,12.88,0,0,1,1.61.36v-.36a3,3,0,0,0-.91-2.34,3.7,3.7,0,0,0-2.54-.79,7.29,7.29,0,0,0-1.88.22,9.49,9.49,0,0,0-1.66.61l-.51-1.43a11.89,11.89,0,0,1,2-.73,8.62,8.62,0,0,1,2.27-.27,5.07,5.07,0,0,1,3.76,1.28,4.63,4.63,0,0,1,1.22,3.42v7.12h-1.71V86.93a5.67,5.67,0,0,1-1.64,1.38A5,5,0,0,1,510.38,88.91Zm.35-1.42a4.81,4.81,0,0,0,1.5-.23,4,4,0,0,0,1.22-.63,3.17,3.17,0,0,0,.84-1,2.67,2.67,0,0,0,.3-1.27V83.3c-.44-.12-.93-.23-1.48-.34a10.82,10.82,0,0,0-1.91-.16,4.25,4.25,0,0,0-2.5.64,2,2,0,0,0-.89,1.69v.05a2.07,2.07,0,0,0,.23,1,2.15,2.15,0,0,0,.64.73,2.83,2.83,0,0,0,.94.45A3.68,3.68,0,0,0,510.73,87.49Z"/><path class="cls-1" d="M523.84,88.86a4.54,4.54,0,0,1-1.3-.18,2.67,2.67,0,0,1-1-.57,2.83,2.83,0,0,1-.69-1,4.23,4.23,0,0,1-.24-1.51v-7h-1.63V77h1.63V73.5h1.73V77H526v1.53h-3.69v6.78a1.83,1.83,0,0,0,.54,1.51,2.24,2.24,0,0,0,1.42.42,3.74,3.74,0,0,0,.84-.08,4.14,4.14,0,0,0,.85-.3v1.49a4,4,0,0,1-1,.37A5,5,0,0,1,523.84,88.86Z"/><path class="cls-1" d="M529.09,72.56h2v1.91h-2ZM529.2,77h1.74V88.66H529.2Z"/><path class="cls-1" d="M540.28,88.93a6,6,0,0,1-2.41-.48A6.24,6.24,0,0,1,536,87.14a6,6,0,0,1-1.26-1.91,6.1,6.1,0,0,1-.45-2.34v0a6.1,6.1,0,0,1,.45-2.34A6,6,0,0,1,536,78.57a5.94,5.94,0,0,1,4.37-1.8,6.08,6.08,0,0,1,2.42.48,6.17,6.17,0,0,1,1.92,1.31,5.88,5.88,0,0,1,1.26,1.91,6.08,6.08,0,0,1,.45,2.33v0a6,6,0,0,1-.46,2.34,6,6,0,0,1-1.27,1.94,6,6,0,0,1-4.37,1.8Zm.05-1.55a4.09,4.09,0,0,0,1.73-.36,4.17,4.17,0,0,0,1.35-1,4.41,4.41,0,0,0,.88-1.42,4.76,4.76,0,0,0,.32-1.74v0a4.72,4.72,0,0,0-.33-1.77,4.47,4.47,0,0,0-.91-1.44,4.39,4.39,0,0,0-1.38-1,4,4,0,0,0-1.71-.36,4.09,4.09,0,0,0-1.73.36,4,4,0,0,0-1.34,1,4.39,4.39,0,0,0-.87,1.43A4.83,4.83,0,0,0,536,82.8v0a4.58,4.58,0,0,0,1.22,3.2,4.48,4.48,0,0,0,1.37,1A4,4,0,0,0,540.33,87.38Z"/><path class="cls-1" d="M549.51,77h1.74v2a5.57,5.57,0,0,1,1.53-1.61,4.21,4.21,0,0,1,2.46-.66,4.85,4.85,0,0,1,1.88.34,3.87,3.87,0,0,1,1.39,1,4.31,4.31,0,0,1,.88,1.48,5.68,5.68,0,0,1,.3,1.89v7.23H558V81.87a3.75,3.75,0,0,0-.83-2.56,3,3,0,0,0-2.39-.94,3.55,3.55,0,0,0-1.39.26,3.24,3.24,0,0,0-1.84,1.9,3.9,3.9,0,0,0-.26,1.48v6.65h-1.74Z"/><path class="cls-1" d="M133.49,64.11c-8.41,0-15.41-4.07-15.41-11.65,0-6.49,5.09-10.38,11.91-11.39V35.84h-23.5v-6h53.23c1.09,0,1.47,1,1.47,3,0,2.23-.51,3-1.47,3H137.06v5.23c6.74,1,11.84,5,11.84,11.39C148.9,60,141.89,64.11,133.49,64.11ZM113.88,12.79V6.87H130v-5h7.07v5h15.28c1.08,0,1.53,1,1.53,3s-.45,2.93-1.53,2.93h-14.2c3.05,4.71,12.48,8,16.17,9.3.89.32.57.95-.32,3-.82,1.85-1.14,2.36-2.1,2.17-4.52-1-14.71-5.35-18.21-10.7-3.5,5-13.31,9.3-18.47,10.89-.95.32-1.27-.32-2.1-2.17-.89-2-1.21-2.8-.32-3.12,4.14-1.46,12.93-5,16-9.36Zm19.67,33.88c-5,0-8.47,2-8.47,5.79s3.51,5.8,8.47,5.8,8.34-2,8.34-5.8S138.39,46.67,133.55,46.67Z"/><path class="cls-1" d="M183.92,15.47c0,4.52,8.66,11.33,12.86,13.88.83.51.32,1.27-.89,3s-1.66,2.3-2.68,1.72c-3.12-1.72-9.87-6.68-12.29-11.08-2.16,4.27-9.23,9.36-13.43,11.85-1,.57-1.59,0-2.93-1.78-1.47-2-1.72-2.68-.83-3.25,4.39-2.74,13.12-8.73,13.12-14.39H164.56V9.29h12.29V3.05h6.94V9.29h11.27c1.08,0,1.53,1.08,1.53,3.12s-.45,3.06-1.53,3.06Zm12,48.64c-8.47,0-15.22-5.54-15.22-13.88S187.48,36.35,196,36.35s15.22,5.54,15.22,13.88S204.42,64.11,196,64.11Zm0-6c5,0,8.21-3.38,8.21-7.84S201,42.4,196,42.4s-8.21,3.38-8.21,7.83S190.92,58.07,196,58.07ZM212.7,34.38c0,1.15-1.28,1.46-3.51,1.46s-3.56-.31-3.56-1.52V23.87h-12V17.76h12V4.13h7.07Z"/><path class="cls-1" d="M221.1,38.58V32.47h53.23c1.08,0,1.46,1,1.46,3,0,2.23-.5,3.12-1.46,3.12H251.66v5.54h12.86c2.1,0,2.87.64,2.87,2.8v14.9c0,1.15-1.27,1.47-3.5,1.47s-3.57-.32-3.57-1.53V50.3H228.67V44.12h15.92V38.58ZM266.94,4.07V23.55c0,2.61-1.21,4.14-3.82,4.14H236.63c-1.4,0-3.5-1.4-4.84-2.8s-2.48-3.12-2.48-4.27V4.07h7.07V10h23.5V4.07Zm-7.06,17.57V16h-23.5v3.5c0,1.66.64,2.1,2,2.1Z"/><path class="cls-1" d="M294,14.7v14c0,1.66.64,2.1,2,2.1h27.82c1.09,0,1.53,1.09,1.53,3.12S325,37,323.86,37H309.79V47.24h22.42c1.08,0,1.52,1.08,1.52,3.12s-.44,3.06-1.52,3.06H279V47.24h23.68V37h-8.46c-1.41,0-3.51-1.4-4.84-2.8s-2.49-3.12-2.49-4.27V8.53h36.3c1.08,0,1.53,1.08,1.53,3.12s-.45,3-1.53,3Z"/><path class="cls-1" d="M367.54,59.15c0,1-1.46,1.46-3.5,1.46s-3.57-.44-3.57-1.46V43.29H337V37.12h53.17c1.08,0,1.52,1.08,1.52,3.12s-.44,3-1.52,3H367.54Zm-3.25-41c-3.43,5.73-12.48,11.4-18.65,14.33-1,.44-1.59-.57-2.74-2.23-1.34-1.91-1.66-2.8-.83-3.25,8.34-4.33,12.55-7.38,16.05-11.78,2.23-2.74,2.1-4.77,2.1-7.38V5.66h7.64V8.08c0,2.29-.38,3.89,1.85,6.81,3.63,4.78,9,8.47,15.91,11.78.9.45.51,1.21-.63,3.25-1,1.78-1.47,2.55-2.42,2.17C376.07,29.35,367.61,23.55,364.29,18.14Z"/><path class="cls-1" d="M395.55,50.23V44.06h36.74c1.09,0,1.53,1.08,1.53,3.12s-.44,3-1.53,3Zm18-42.66a14.78,14.78,0,1,1,0,29.55c-8.66,0-15.47-6.63-15.47-14.78S404.85,7.57,413.51,7.57Zm0,6.18A8.37,8.37,0,0,0,405,22.34a8.37,8.37,0,0,0,8.47,8.6c4.78,0,8.15-3.69,8.15-8.6S418.29,13.75,413.51,13.75Zm30.31,43.42c0,1-1.47,1.47-3.5,1.47s-3.57-.45-3.57-1.47V4.77h7.07Z"/><path class="cls-1" d="M470.88,29c-2.55,6.36-8.92,13.18-13.69,17-.9.7-1.79.38-3.51-1.47-1.46-1.59-2.22-2.42-1.33-3.18,7.83-6.88,14.26-15,14.26-24.71V8.53h7.58v8c0,9.16,7.45,18.27,13.56,23.87.76.71.38,1.6-1.15,3.25-1.33,1.47-2.29,2.17-3.12,1.53C479,41.57,473.49,35,470.88,29Zm21.26-24.2h7.07V23.36h9.36v6.18h-9.36V57.17c0,1.09-1.59,1.47-3.56,1.47-2.23,0-3.51-.51-3.51-1.47Z"/><path class="cls-1" d="M533.27,40.56v6.81h14.9c1.09,0,1.53,1,1.53,3.05s-.44,3-1.53,3H511.43V47.37h14.78V40.68c-6.18-1.14-10.7-5.54-10.7-11.4,0-6.81,6.24-11.65,13.94-11.65s13.95,4.84,13.95,11.65C543.4,35,539.13,39.22,533.27,40.56ZM512.58,15.91V9.86h13.56V3.69h7.07V9.86h12.1c1.08,0,1.53,1,1.53,3s-.45,3.05-1.53,3.05Zm16.87,19.3c3.7,0,6.88-2.1,6.88-5.93s-3.18-5.92-6.88-5.92-6.87,2.1-6.87,5.92S525.76,35.21,529.45,35.21Zm30.25,22c0,1-1.47,1.47-3.5,1.47s-3.57-.45-3.57-1.47V4.77h7.07Z"/><path class="cls-1" d="M46.23,3.68A42.55,42.55,0,1,1,3.68,46.23,42.6,42.6,0,0,1,46.23,3.68m0-3.68A46.24,46.24,0,1,0,92.46,46.23,46.23,46.23,0,0,0,46.23,0Z"/><path class="cls-1" d="M76.57,1.14a6.65,6.65,0,0,1,.75,3.42,7.15,7.15,0,0,1-2.07,4.25C72.1,26,60.66,38.78,47,38.9,33.33,38.78,21.88,26,18.74,8.81a7.09,7.09,0,0,1-2.07-4.25,6.61,6.61,0,0,1,.74-3.42c-9.24,0-15.5.07-15.39.19l41.7,88h6.54L92,1.33C92.08,1.21,85.81,1.16,76.57,1.14Z"/></svg>