<svg xmlns="http://www.w3.org/2000/svg" width="50" height="50" viewBox="0 0 50 50">
  <g id="account_circle" transform="translate(-0.162 -0.346)">
    <rect id="Path" width="50" height="50" transform="translate(0.162 0.346)" fill="rgba(0,0,0,0)"/>
    <path id="Icon" d="M20.5,42A20.779,20.779,0,0,1,0,21,20.778,20.778,0,0,1,20.5,0,20.778,20.778,0,0,1,41,21,20.779,20.779,0,0,1,20.5,42Zm0-11.551c-4.064,0-9.259,1.922-10.107,3.738a15.945,15.945,0,0,0,20.212,0c-.4-.881-1.833-1.822-3.93-2.578A19.351,19.351,0,0,0,20.5,30.449Zm0-4.2c2.972,0,10.07,1.2,13.037,4.893A16.883,16.883,0,0,0,36.9,21,16.622,16.622,0,0,0,20.5,4.2,16.622,16.622,0,0,0,4.1,21,16.894,16.894,0,0,0,7.461,31.142c1.615-2.012,4.424-3.186,6.5-3.816A24.584,24.584,0,0,1,20.5,26.249Zm0-3.149a7.352,7.352,0,1,1,7.175-7.35A7.272,7.272,0,0,1,20.5,23.1Zm0-10.5a3.151,3.151,0,1,0,3.074,3.151A3.117,3.117,0,0,0,20.5,12.6Z" transform="translate(5.162 4.346)" fill="#fff"/>
  </g>
</svg>
