<svg xmlns="http://www.w3.org/2000/svg" width="56" height="60" viewBox="0 0 56 60">
  <g id="그룹_8" data-name="그룹 8" transform="translate(0 0.687)">
    <g id="delete_sweep" transform="translate(7.593 -0.483)">
      <rect id="Path" width="48" height="49" transform="translate(0.407 -0.203)" fill="rgba(0,0,0,0)"/>
      <path id="Icon" d="M7.428,20H0V16H7.428v4Zm3.716-8H0V8H11.143v4ZM13,4H0V0H13V4Z" transform="translate(28.407 17.797)" fill="#fff"/>
    </g>
    <g id="person_outline" transform="translate(0 11.856)">
      <path id="Path-2" data-name="Path" d="M0,0H47V47H0Z" transform="translate(0 0.458)" fill="rgba(0,0,0,0)"/>
      <path id="Icon-2" data-name="Icon" d="M25.066,24.063H-1V21.714c0-1.373,6.679-4.486,13.033-4.486s13.033,3.112,13.033,4.486v2.348ZM11.95,10.057A5.326,5.326,0,0,1,6.38,5.028,5.326,5.326,0,0,1,11.95,0a5.326,5.326,0,0,1,5.569,5.028A5.326,5.326,0,0,1,11.95,10.057Z" transform="translate(11.777 11.593)" fill="none"/>
      <path id="Icon-3" data-name="Icon" d="M31,31H0V25.187C0,23.6,1.008,21.3,5.81,19.379A28.771,28.771,0,0,1,15.5,17.438a28.778,28.778,0,0,1,9.691,1.942C29.992,21.3,31,23.6,31,25.187V31ZM15.5,21.118c-5.762,0-11.818,2.824-11.818,4.069v2.131H27.32V25.187C27.319,23.941,21.262,21.118,15.5,21.118Zm0-5.619a7.749,7.749,0,1,1,7.752-7.749A7.758,7.758,0,0,1,15.5,15.5Zm0-11.819a4.069,4.069,0,1,0,4.069,4.069A4.072,4.072,0,0,0,15.5,3.68Z" transform="translate(8 8.458)" fill="#fff"/>
    </g>
  </g>
</svg>
