<svg xmlns="http://www.w3.org/2000/svg" width="51" height="50" viewBox="0 0 51 50">
  <g id="notification_important" transform="translate(0.196 -0.346)">
    <rect id="Rectangle_Copy_3" data-name="Rectangle Copy 3" width="51" height="50" transform="translate(-0.196 0.346)" fill="rgba(0,0,0,0)"/>
    <path id="Icon" d="M18.7,44.682a4.14,4.14,0,0,1-4.135-4.136h8.271A4.14,4.14,0,0,1,18.7,44.682Zm18.7-6.234H0V36.369l4.156-4.156V19.743A14.534,14.534,0,0,1,15.586,5.549V3.119a3.118,3.118,0,1,1,6.235,0V5.549a14.515,14.515,0,0,1,11.43,14.194V32.213l4.156,4.156v2.078ZM18.7,9.353A10.4,10.4,0,0,0,8.312,19.744V34.291H29.1V19.744A10.4,10.4,0,0,0,18.7,9.353Z" transform="translate(6.499 3.585)" fill="#fff"/>
  </g>
</svg>
